<mxfile host="Electron" agent="Mozilla/5.0 (Windows NT 10.0; Win64; x64) AppleWebKit/537.36 (KHTML, like Gecko) draw.io/27.0.9 Chrome/134.0.6998.205 Electron/35.4.0 Safari/537.36" version="27.0.9">
  <diagram name="Página-1" id="Y2wxkopbrOoG1ZFBHDRZ">
    <mxGraphModel dx="1773" dy="661" grid="1" gridSize="10" guides="1" tooltips="1" connect="1" arrows="1" fold="1" page="1" pageScale="1" pageWidth="827" pageHeight="1169" math="0" shadow="0">
      <root>
        <mxCell id="0" />
        <mxCell id="1" parent="0" />
        <mxCell id="6sxr05ySoq-j22cTBixy-1" value="Cliente" style="whiteSpace=wrap;html=1;align=center;fillColor=#f0a30a;strokeColor=#BD7000;fontColor=#000000;" parent="1" vertex="1">
          <mxGeometry x="90" y="140" width="100" height="40" as="geometry" />
        </mxCell>
        <mxCell id="6sxr05ySoq-j22cTBixy-4" value="Direccion" style="whiteSpace=wrap;html=1;align=center;fillColor=#f0a30a;strokeColor=#BD7000;fontColor=#000000;" parent="1" vertex="1">
          <mxGeometry x="80" y="330" width="100" height="40" as="geometry" />
        </mxCell>
        <mxCell id="6sxr05ySoq-j22cTBixy-5" value="resgistra" style="shape=rhombus;perimeter=rhombusPerimeter;whiteSpace=wrap;html=1;align=center;fillColor=#76608a;fontColor=#ffffff;strokeColor=#432D57;" parent="1" vertex="1">
          <mxGeometry x="90" y="240" width="90" height="40" as="geometry" />
        </mxCell>
        <mxCell id="6sxr05ySoq-j22cTBixy-6" value="" style="endArrow=none;html=1;rounded=0;exitX=0;exitY=0.5;exitDx=0;exitDy=0;" parent="1" source="6sxr05ySoq-j22cTBixy-5" target="6sxr05ySoq-j22cTBixy-1" edge="1">
          <mxGeometry relative="1" as="geometry">
            <mxPoint x="67" y="230" as="sourcePoint" />
            <mxPoint x="20" y="260" as="targetPoint" />
          </mxGeometry>
        </mxCell>
        <mxCell id="6sxr05ySoq-j22cTBixy-7" value="(0,N)" style="resizable=0;html=1;whiteSpace=wrap;align=right;verticalAlign=bottom;" parent="6sxr05ySoq-j22cTBixy-6" connectable="0" vertex="1">
          <mxGeometry x="1" relative="1" as="geometry">
            <mxPoint x="34" as="offset" />
          </mxGeometry>
        </mxCell>
        <mxCell id="6sxr05ySoq-j22cTBixy-8" value="" style="endArrow=none;html=1;rounded=0;exitX=1;exitY=0.5;exitDx=0;exitDy=0;entryX=1;entryY=0.25;entryDx=0;entryDy=0;" parent="1" source="6sxr05ySoq-j22cTBixy-5" target="6sxr05ySoq-j22cTBixy-4" edge="1">
          <mxGeometry relative="1" as="geometry">
            <mxPoint x="67" y="230" as="sourcePoint" />
            <mxPoint x="240" y="260" as="targetPoint" />
          </mxGeometry>
        </mxCell>
        <mxCell id="6sxr05ySoq-j22cTBixy-9" value="(0,N)" style="resizable=0;html=1;whiteSpace=wrap;align=right;verticalAlign=bottom;" parent="6sxr05ySoq-j22cTBixy-8" connectable="0" vertex="1">
          <mxGeometry x="1" relative="1" as="geometry">
            <mxPoint as="offset" />
          </mxGeometry>
        </mxCell>
        <mxCell id="6sxr05ySoq-j22cTBixy-10" value="" style="endArrow=none;html=1;rounded=0;" parent="1" target="6sxr05ySoq-j22cTBixy-11" edge="1">
          <mxGeometry relative="1" as="geometry">
            <mxPoint x="190" y="160" as="sourcePoint" />
            <mxPoint x="250" y="160" as="targetPoint" />
          </mxGeometry>
        </mxCell>
        <mxCell id="6sxr05ySoq-j22cTBixy-11" value="&lt;u&gt;Numero_Cliente&lt;/u&gt;" style="ellipse;whiteSpace=wrap;html=1;align=center;" parent="1" vertex="1">
          <mxGeometry x="230" y="80" width="50" height="30" as="geometry" />
        </mxCell>
        <mxCell id="6sxr05ySoq-j22cTBixy-12" value="" style="endArrow=none;html=1;rounded=0;exitX=0.75;exitY=0;exitDx=0;exitDy=0;" parent="1" source="6sxr05ySoq-j22cTBixy-1" target="6sxr05ySoq-j22cTBixy-13" edge="1">
          <mxGeometry relative="1" as="geometry">
            <mxPoint x="130" y="95" as="sourcePoint" />
            <mxPoint x="190" y="95" as="targetPoint" />
          </mxGeometry>
        </mxCell>
        <mxCell id="6sxr05ySoq-j22cTBixy-13" value="Saldo" style="ellipse;whiteSpace=wrap;html=1;align=center;" parent="1" vertex="1">
          <mxGeometry x="165" y="70" width="50" height="30" as="geometry" />
        </mxCell>
        <mxCell id="6sxr05ySoq-j22cTBixy-14" value="" style="endArrow=none;html=1;rounded=0;" parent="1" source="6sxr05ySoq-j22cTBixy-1" target="6sxr05ySoq-j22cTBixy-15" edge="1">
          <mxGeometry relative="1" as="geometry">
            <mxPoint x="80" y="95" as="sourcePoint" />
            <mxPoint x="140" y="95" as="targetPoint" />
          </mxGeometry>
        </mxCell>
        <mxCell id="6sxr05ySoq-j22cTBixy-15" value="Limite_Credito" style="ellipse;whiteSpace=wrap;html=1;align=center;" parent="1" vertex="1">
          <mxGeometry x="130" y="40" width="50" height="30" as="geometry" />
        </mxCell>
        <mxCell id="6sxr05ySoq-j22cTBixy-16" value="" style="endArrow=none;html=1;rounded=0;" parent="1" source="6sxr05ySoq-j22cTBixy-1" target="6sxr05ySoq-j22cTBixy-17" edge="1">
          <mxGeometry relative="1" as="geometry">
            <mxPoint x="30" y="75" as="sourcePoint" />
            <mxPoint x="90" y="75" as="targetPoint" />
          </mxGeometry>
        </mxCell>
        <mxCell id="6sxr05ySoq-j22cTBixy-17" value="Descuento" style="ellipse;whiteSpace=wrap;html=1;align=center;" parent="1" vertex="1">
          <mxGeometry x="65" y="60" width="50" height="30" as="geometry" />
        </mxCell>
        <mxCell id="6sxr05ySoq-j22cTBixy-18" value="" style="endArrow=none;html=1;rounded=0;exitX=0.87;exitY=0.9;exitDx=0;exitDy=0;exitPerimeter=0;" parent="1" source="6sxr05ySoq-j22cTBixy-4" target="6sxr05ySoq-j22cTBixy-19" edge="1">
          <mxGeometry relative="1" as="geometry">
            <mxPoint x="113" y="415" as="sourcePoint" />
            <mxPoint x="173" y="415" as="targetPoint" />
          </mxGeometry>
        </mxCell>
        <mxCell id="6sxr05ySoq-j22cTBixy-19" value="&lt;u&gt;Código&lt;/u&gt;" style="ellipse;whiteSpace=wrap;html=1;align=center;" parent="1" vertex="1">
          <mxGeometry x="115" y="470" width="50" height="30" as="geometry" />
        </mxCell>
        <mxCell id="6sxr05ySoq-j22cTBixy-20" value="" style="endArrow=none;html=1;rounded=0;" parent="1" source="6sxr05ySoq-j22cTBixy-4" target="6sxr05ySoq-j22cTBixy-21" edge="1">
          <mxGeometry relative="1" as="geometry">
            <mxPoint x="65" y="415" as="sourcePoint" />
            <mxPoint x="125" y="415" as="targetPoint" />
          </mxGeometry>
        </mxCell>
        <mxCell id="6sxr05ySoq-j22cTBixy-21" value="Tipo_Vía" style="ellipse;whiteSpace=wrap;html=1;align=center;" parent="1" vertex="1">
          <mxGeometry x="70" y="440" width="50" height="30" as="geometry" />
        </mxCell>
        <mxCell id="6sxr05ySoq-j22cTBixy-22" value="" style="endArrow=none;html=1;rounded=0;" parent="1" source="6sxr05ySoq-j22cTBixy-4" target="6sxr05ySoq-j22cTBixy-23" edge="1">
          <mxGeometry relative="1" as="geometry">
            <mxPoint x="5" y="415" as="sourcePoint" />
            <mxPoint x="65" y="415" as="targetPoint" />
          </mxGeometry>
        </mxCell>
        <mxCell id="6sxr05ySoq-j22cTBixy-23" value="Portal" style="ellipse;whiteSpace=wrap;html=1;align=center;" parent="1" vertex="1">
          <mxGeometry x="40" y="400" width="50" height="30" as="geometry" />
        </mxCell>
        <mxCell id="6sxr05ySoq-j22cTBixy-24" value="" style="endArrow=none;html=1;rounded=0;" parent="1" source="6sxr05ySoq-j22cTBixy-4" target="6sxr05ySoq-j22cTBixy-25" edge="1">
          <mxGeometry relative="1" as="geometry">
            <mxPoint x="-30" y="375" as="sourcePoint" />
            <mxPoint x="30" y="375" as="targetPoint" />
          </mxGeometry>
        </mxCell>
        <mxCell id="6sxr05ySoq-j22cTBixy-25" value="Nombre_Vía" style="ellipse;whiteSpace=wrap;html=1;align=center;" parent="1" vertex="1">
          <mxGeometry x="5" y="360" width="50" height="30" as="geometry" />
        </mxCell>
        <mxCell id="6sxr05ySoq-j22cTBixy-26" value="" style="endArrow=none;html=1;rounded=0;exitX=0;exitY=0.25;exitDx=0;exitDy=0;" parent="1" source="6sxr05ySoq-j22cTBixy-4" target="6sxr05ySoq-j22cTBixy-27" edge="1">
          <mxGeometry relative="1" as="geometry">
            <mxPoint x="-50" y="345" as="sourcePoint" />
            <mxPoint x="10" y="345" as="targetPoint" />
          </mxGeometry>
        </mxCell>
        <mxCell id="6sxr05ySoq-j22cTBixy-27" value="Número" style="ellipse;whiteSpace=wrap;html=1;align=center;" parent="1" vertex="1">
          <mxGeometry x="-15" y="330" width="50" height="30" as="geometry" />
        </mxCell>
        <mxCell id="6sxr05ySoq-j22cTBixy-28" value="" style="endArrow=none;html=1;rounded=0;" parent="1" target="6sxr05ySoq-j22cTBixy-29" edge="1">
          <mxGeometry relative="1" as="geometry">
            <mxPoint x="165" y="365" as="sourcePoint" />
            <mxPoint x="225" y="365" as="targetPoint" />
          </mxGeometry>
        </mxCell>
        <mxCell id="6sxr05ySoq-j22cTBixy-29" value="Piso" style="ellipse;whiteSpace=wrap;html=1;align=center;" parent="1" vertex="1">
          <mxGeometry x="165" y="480" width="50" height="30" as="geometry" />
        </mxCell>
        <mxCell id="6sxr05ySoq-j22cTBixy-30" value="" style="endArrow=none;html=1;rounded=0;" parent="1" target="6sxr05ySoq-j22cTBixy-31" edge="1">
          <mxGeometry relative="1" as="geometry">
            <mxPoint x="165" y="360" as="sourcePoint" />
            <mxPoint x="225" y="360" as="targetPoint" />
          </mxGeometry>
        </mxCell>
        <mxCell id="6sxr05ySoq-j22cTBixy-31" value="Código_Postal" style="ellipse;whiteSpace=wrap;html=1;align=center;" parent="1" vertex="1">
          <mxGeometry x="215" y="470" width="50" height="30" as="geometry" />
        </mxCell>
        <mxCell id="6sxr05ySoq-j22cTBixy-32" value="Pide" style="shape=rhombus;perimeter=rhombusPerimeter;whiteSpace=wrap;html=1;align=center;fillColor=#76608a;fontColor=#ffffff;strokeColor=#432D57;" parent="1" vertex="1">
          <mxGeometry x="260" y="150" width="90" height="40" as="geometry" />
        </mxCell>
        <mxCell id="6sxr05ySoq-j22cTBixy-33" value="" style="endArrow=none;html=1;rounded=0;exitX=0;exitY=0.5;exitDx=0;exitDy=0;" parent="1" source="6sxr05ySoq-j22cTBixy-32" edge="1">
          <mxGeometry relative="1" as="geometry">
            <mxPoint x="227" y="140" as="sourcePoint" />
            <mxPoint x="180" y="170" as="targetPoint" />
          </mxGeometry>
        </mxCell>
        <mxCell id="6sxr05ySoq-j22cTBixy-34" value="(1,1)" style="resizable=0;html=1;whiteSpace=wrap;align=right;verticalAlign=bottom;" parent="6sxr05ySoq-j22cTBixy-33" connectable="0" vertex="1">
          <mxGeometry x="1" relative="1" as="geometry">
            <mxPoint x="34" as="offset" />
          </mxGeometry>
        </mxCell>
        <mxCell id="6sxr05ySoq-j22cTBixy-35" value="" style="endArrow=none;html=1;rounded=0;exitX=1;exitY=0.5;exitDx=0;exitDy=0;entryX=0;entryY=0.5;entryDx=0;entryDy=0;" parent="1" source="6sxr05ySoq-j22cTBixy-32" target="6sxr05ySoq-j22cTBixy-46" edge="1">
          <mxGeometry relative="1" as="geometry">
            <mxPoint x="227" y="140" as="sourcePoint" />
            <mxPoint x="420" y="165" as="targetPoint" />
          </mxGeometry>
        </mxCell>
        <mxCell id="6sxr05ySoq-j22cTBixy-36" value="(0,N)" style="resizable=0;html=1;whiteSpace=wrap;align=right;verticalAlign=bottom;" parent="6sxr05ySoq-j22cTBixy-35" connectable="0" vertex="1">
          <mxGeometry x="1" relative="1" as="geometry">
            <mxPoint as="offset" />
          </mxGeometry>
        </mxCell>
        <mxCell id="6sxr05ySoq-j22cTBixy-46" value="Pedido" style="whiteSpace=wrap;html=1;align=center;fillColor=#f0a30a;strokeColor=#BD7000;fontColor=#000000;" parent="1" vertex="1">
          <mxGeometry x="400" y="140" width="100" height="40" as="geometry" />
        </mxCell>
        <mxCell id="6sxr05ySoq-j22cTBixy-69" value="Artículo" style="whiteSpace=wrap;html=1;align=center;fillColor=#f0a30a;strokeColor=#BD7000;fontColor=#000000;" parent="1" vertex="1">
          <mxGeometry x="680" y="140" width="100" height="40" as="geometry" />
        </mxCell>
        <mxCell id="6sxr05ySoq-j22cTBixy-70" value="Hay" style="shape=rhombus;perimeter=rhombusPerimeter;whiteSpace=wrap;html=1;align=center;fillColor=#76608a;fontColor=#ffffff;strokeColor=#432D57;" parent="1" vertex="1">
          <mxGeometry x="535" y="140" width="90" height="40" as="geometry" />
        </mxCell>
        <mxCell id="6sxr05ySoq-j22cTBixy-71" value="" style="endArrow=none;html=1;rounded=0;exitX=0;exitY=0.5;exitDx=0;exitDy=0;" parent="1" source="6sxr05ySoq-j22cTBixy-70" edge="1">
          <mxGeometry relative="1" as="geometry">
            <mxPoint x="512" y="130" as="sourcePoint" />
            <mxPoint x="500" y="160" as="targetPoint" />
          </mxGeometry>
        </mxCell>
        <mxCell id="6sxr05ySoq-j22cTBixy-72" value="(0,N)" style="resizable=0;html=1;whiteSpace=wrap;align=right;verticalAlign=bottom;" parent="6sxr05ySoq-j22cTBixy-71" connectable="0" vertex="1">
          <mxGeometry x="1" relative="1" as="geometry">
            <mxPoint x="34" as="offset" />
          </mxGeometry>
        </mxCell>
        <mxCell id="6sxr05ySoq-j22cTBixy-73" value="" style="endArrow=none;html=1;rounded=0;exitX=1;exitY=0.5;exitDx=0;exitDy=0;" parent="1" source="6sxr05ySoq-j22cTBixy-70" edge="1">
          <mxGeometry relative="1" as="geometry">
            <mxPoint x="512" y="130" as="sourcePoint" />
            <mxPoint x="685" y="160" as="targetPoint" />
          </mxGeometry>
        </mxCell>
        <mxCell id="6sxr05ySoq-j22cTBixy-74" value="(1,M)" style="resizable=0;html=1;whiteSpace=wrap;align=right;verticalAlign=bottom;" parent="6sxr05ySoq-j22cTBixy-73" connectable="0" vertex="1">
          <mxGeometry x="1" relative="1" as="geometry">
            <mxPoint as="offset" />
          </mxGeometry>
        </mxCell>
        <mxCell id="6sxr05ySoq-j22cTBixy-77" value="" style="endArrow=none;html=1;rounded=0;" parent="1" source="6sxr05ySoq-j22cTBixy-69" target="6sxr05ySoq-j22cTBixy-78" edge="1">
          <mxGeometry relative="1" as="geometry">
            <mxPoint x="730" y="245" as="sourcePoint" />
            <mxPoint x="790" y="245" as="targetPoint" />
          </mxGeometry>
        </mxCell>
        <mxCell id="6sxr05ySoq-j22cTBixy-78" value="&lt;u&gt;Número_Artículo&lt;/u&gt;" style="ellipse;whiteSpace=wrap;html=1;align=center;" parent="1" vertex="1">
          <mxGeometry x="790" y="205" width="50" height="30" as="geometry" />
        </mxCell>
        <mxCell id="6sxr05ySoq-j22cTBixy-79" value="Prove" style="shape=rhombus;perimeter=rhombusPerimeter;whiteSpace=wrap;html=1;align=center;fillColor=#76608a;fontColor=#ffffff;strokeColor=#432D57;" parent="1" vertex="1">
          <mxGeometry x="840" y="140" width="90" height="40" as="geometry" />
        </mxCell>
        <mxCell id="6sxr05ySoq-j22cTBixy-80" value="" style="endArrow=none;html=1;rounded=0;exitX=0;exitY=0.5;exitDx=0;exitDy=0;" parent="1" source="6sxr05ySoq-j22cTBixy-79" edge="1">
          <mxGeometry relative="1" as="geometry">
            <mxPoint x="817" y="130" as="sourcePoint" />
            <mxPoint x="770" y="160" as="targetPoint" />
          </mxGeometry>
        </mxCell>
        <mxCell id="6sxr05ySoq-j22cTBixy-81" value="(1,N)" style="resizable=0;html=1;whiteSpace=wrap;align=right;verticalAlign=bottom;" parent="6sxr05ySoq-j22cTBixy-80" connectable="0" vertex="1">
          <mxGeometry x="1" relative="1" as="geometry">
            <mxPoint x="34" as="offset" />
          </mxGeometry>
        </mxCell>
        <mxCell id="6sxr05ySoq-j22cTBixy-82" value="" style="endArrow=none;html=1;rounded=0;exitX=1;exitY=0.5;exitDx=0;exitDy=0;" parent="1" source="6sxr05ySoq-j22cTBixy-79" edge="1">
          <mxGeometry relative="1" as="geometry">
            <mxPoint x="817" y="130" as="sourcePoint" />
            <mxPoint x="990" y="160" as="targetPoint" />
          </mxGeometry>
        </mxCell>
        <mxCell id="6sxr05ySoq-j22cTBixy-83" value="(1,N)" style="resizable=0;html=1;whiteSpace=wrap;align=right;verticalAlign=bottom;" parent="6sxr05ySoq-j22cTBixy-82" connectable="0" vertex="1">
          <mxGeometry x="1" relative="1" as="geometry">
            <mxPoint as="offset" />
          </mxGeometry>
        </mxCell>
        <mxCell id="6sxr05ySoq-j22cTBixy-84" value="" style="endArrow=none;html=1;rounded=0;" parent="1" source="6sxr05ySoq-j22cTBixy-79" target="6sxr05ySoq-j22cTBixy-85" edge="1">
          <mxGeometry relative="1" as="geometry">
            <mxPoint x="840" y="95" as="sourcePoint" />
            <mxPoint x="900" y="95" as="targetPoint" />
          </mxGeometry>
        </mxCell>
        <mxCell id="6sxr05ySoq-j22cTBixy-85" value="Total" style="ellipse;whiteSpace=wrap;html=1;align=center;" parent="1" vertex="1">
          <mxGeometry x="875" y="80" width="50" height="30" as="geometry" />
        </mxCell>
        <mxCell id="6sxr05ySoq-j22cTBixy-86" value="Fábrica" style="whiteSpace=wrap;html=1;align=center;fillColor=#f0a30a;strokeColor=#BD7000;fontColor=#000000;" parent="1" vertex="1">
          <mxGeometry x="990" y="140" width="100" height="40" as="geometry" />
        </mxCell>
        <mxCell id="6sxr05ySoq-j22cTBixy-87" value="" style="endArrow=none;html=1;rounded=0;" parent="1" source="6sxr05ySoq-j22cTBixy-69" target="6sxr05ySoq-j22cTBixy-88" edge="1">
          <mxGeometry relative="1" as="geometry">
            <mxPoint x="705" y="245" as="sourcePoint" />
            <mxPoint x="765" y="245" as="targetPoint" />
          </mxGeometry>
        </mxCell>
        <mxCell id="6sxr05ySoq-j22cTBixy-88" value="Existencia_articulos_fábricas" style="ellipse;whiteSpace=wrap;html=1;align=center;" parent="1" vertex="1">
          <mxGeometry x="730" y="235" width="50" height="30" as="geometry" />
        </mxCell>
        <mxCell id="6sxr05ySoq-j22cTBixy-89" value="" style="endArrow=none;html=1;rounded=0;exitX=0.66;exitY=0.125;exitDx=0;exitDy=0;exitPerimeter=0;" parent="1" source="6sxr05ySoq-j22cTBixy-69" target="6sxr05ySoq-j22cTBixy-90" edge="1">
          <mxGeometry relative="1" as="geometry">
            <mxPoint x="705" y="85" as="sourcePoint" />
            <mxPoint x="765" y="85" as="targetPoint" />
          </mxGeometry>
        </mxCell>
        <mxCell id="6sxr05ySoq-j22cTBixy-90" value="Descripción_Artículo" style="ellipse;whiteSpace=wrap;html=1;align=center;" parent="1" vertex="1">
          <mxGeometry x="740" y="70" width="50" height="30" as="geometry" />
        </mxCell>
        <mxCell id="6sxr05ySoq-j22cTBixy-91" value="" style="endArrow=none;html=1;rounded=0;" parent="1" target="6sxr05ySoq-j22cTBixy-92" edge="1">
          <mxGeometry relative="1" as="geometry">
            <mxPoint x="398.85714285714266" y="165" as="sourcePoint" />
            <mxPoint x="385" y="225" as="targetPoint" />
          </mxGeometry>
        </mxCell>
        <mxCell id="6sxr05ySoq-j22cTBixy-92" value="&lt;u&gt;Número_Pedido&lt;/u&gt;" style="whiteSpace=wrap;html=1;align=center;shape=ellipse;perimeter=ellipsePerimeter;" parent="1" vertex="1">
          <mxGeometry x="518" y="40" width="50" height="30" as="geometry" />
        </mxCell>
        <mxCell id="6sxr05ySoq-j22cTBixy-93" value="" style="endArrow=none;html=1;rounded=0;exitX=0.5;exitY=1;exitDx=0;exitDy=0;" parent="1" target="6sxr05ySoq-j22cTBixy-94" edge="1">
          <mxGeometry relative="1" as="geometry">
            <mxPoint x="410" y="165" as="sourcePoint" />
            <mxPoint x="436" y="255" as="targetPoint" />
          </mxGeometry>
        </mxCell>
        <mxCell id="6sxr05ySoq-j22cTBixy-94" value="Número_Cliente" style="ellipse;whiteSpace=wrap;html=1;align=center;" parent="1" vertex="1">
          <mxGeometry x="376" y="40" width="50" height="30" as="geometry" />
        </mxCell>
        <mxCell id="6sxr05ySoq-j22cTBixy-95" value="" style="endArrow=none;html=1;rounded=0;exitX=0.75;exitY=1;exitDx=0;exitDy=0;" parent="1" target="6sxr05ySoq-j22cTBixy-96" edge="1">
          <mxGeometry relative="1" as="geometry">
            <mxPoint x="435" y="165" as="sourcePoint" />
            <mxPoint x="456" y="295" as="targetPoint" />
          </mxGeometry>
        </mxCell>
        <mxCell id="6sxr05ySoq-j22cTBixy-96" value="Fecha_Pedido" style="ellipse;whiteSpace=wrap;html=1;align=center;" parent="1" vertex="1">
          <mxGeometry x="440" y="40" width="50" height="30" as="geometry" />
        </mxCell>
        <mxCell id="6sxr05ySoq-j22cTBixy-97" value="" style="endArrow=none;html=1;rounded=0;" parent="1" target="6sxr05ySoq-j22cTBixy-98" edge="1">
          <mxGeometry relative="1" as="geometry">
            <mxPoint x="547" y="330" as="sourcePoint" />
            <mxPoint x="607" y="330" as="targetPoint" />
          </mxGeometry>
        </mxCell>
        <mxCell id="6sxr05ySoq-j22cTBixy-98" value="Numero_Artículo" style="ellipse;whiteSpace=wrap;html=1;align=center;" parent="1" vertex="1">
          <mxGeometry x="582" y="315" width="50" height="30" as="geometry" />
        </mxCell>
        <mxCell id="6sxr05ySoq-j22cTBixy-99" value="" style="endArrow=none;html=1;rounded=0;exitX=0.75;exitY=1;exitDx=0;exitDy=0;" parent="1" target="6sxr05ySoq-j22cTBixy-100" edge="1">
          <mxGeometry relative="1" as="geometry">
            <mxPoint x="532" y="350" as="sourcePoint" />
            <mxPoint x="587" y="375" as="targetPoint" />
          </mxGeometry>
        </mxCell>
        <mxCell id="6sxr05ySoq-j22cTBixy-100" value="Cantidad" style="ellipse;whiteSpace=wrap;html=1;align=center;" parent="1" vertex="1">
          <mxGeometry x="562" y="360" width="50" height="30" as="geometry" />
        </mxCell>
        <mxCell id="6sxr05ySoq-j22cTBixy-101" value="" style="endArrow=none;html=1;rounded=0;" parent="1" target="6sxr05ySoq-j22cTBixy-102" edge="1">
          <mxGeometry relative="1" as="geometry">
            <mxPoint x="513.1538461538462" y="350" as="sourcePoint" />
            <mxPoint x="527" y="395" as="targetPoint" />
          </mxGeometry>
        </mxCell>
        <mxCell id="6sxr05ySoq-j22cTBixy-102" value="&lt;u&gt;Código&lt;/u&gt;" style="ellipse;whiteSpace=wrap;html=1;align=center;" parent="1" vertex="1">
          <mxGeometry x="502" y="380" width="50" height="30" as="geometry" />
        </mxCell>
        <mxCell id="6sxr05ySoq-j22cTBixy-103" value="" style="endArrow=none;html=1;rounded=0;" parent="1" target="6sxr05ySoq-j22cTBixy-104" edge="1">
          <mxGeometry relative="1" as="geometry">
            <mxPoint x="1080" y="155" as="sourcePoint" />
            <mxPoint x="1140" y="155" as="targetPoint" />
          </mxGeometry>
        </mxCell>
        <mxCell id="6sxr05ySoq-j22cTBixy-104" value="&lt;u&gt;Número_Fábrica&lt;/u&gt;" style="ellipse;whiteSpace=wrap;html=1;align=center;" parent="1" vertex="1">
          <mxGeometry x="1115" y="100" width="50" height="30" as="geometry" />
        </mxCell>
        <mxCell id="6sxr05ySoq-j22cTBixy-105" value="" style="endArrow=none;html=1;rounded=0;" parent="1" source="6sxr05ySoq-j22cTBixy-86" target="6sxr05ySoq-j22cTBixy-106" edge="1">
          <mxGeometry relative="1" as="geometry">
            <mxPoint x="1080" y="219" as="sourcePoint" />
            <mxPoint x="1140" y="219" as="targetPoint" />
          </mxGeometry>
        </mxCell>
        <mxCell id="6sxr05ySoq-j22cTBixy-106" value="Télefono" style="ellipse;whiteSpace=wrap;html=1;align=center;" parent="1" vertex="1">
          <mxGeometry x="1115" y="204" width="50" height="30" as="geometry" />
        </mxCell>
        <mxCell id="6sxr05ySoq-j22cTBixy-109" value="" style="endArrow=none;html=1;rounded=0;" parent="1" source="6sxr05ySoq-j22cTBixy-79" target="6sxr05ySoq-j22cTBixy-110" edge="1">
          <mxGeometry relative="1" as="geometry">
            <mxPoint x="890" y="225" as="sourcePoint" />
            <mxPoint x="950" y="225" as="targetPoint" />
          </mxGeometry>
        </mxCell>
        <mxCell id="6sxr05ySoq-j22cTBixy-110" value="Fábrica_exclusiva" style="ellipse;whiteSpace=wrap;html=1;align=center;" parent="1" vertex="1">
          <mxGeometry x="925" y="210" width="50" height="30" as="geometry" />
        </mxCell>
        <mxCell id="S-B8eoPbQV6OBo4gRNN--1" value="Líneas" style="shape=ext;margin=3;double=1;whiteSpace=wrap;html=1;align=center;fillColor=#f0a30a;fontColor=#000000;strokeColor=#BD7000;" vertex="1" parent="1">
          <mxGeometry x="454" y="310" width="100" height="40" as="geometry" />
        </mxCell>
        <mxCell id="S-B8eoPbQV6OBo4gRNN--2" value="" style="endArrow=none;html=1;rounded=0;exitX=1;exitY=0;exitDx=0;exitDy=0;" edge="1" target="S-B8eoPbQV6OBo4gRNN--3" parent="1" source="6sxr05ySoq-j22cTBixy-46">
          <mxGeometry relative="1" as="geometry">
            <mxPoint x="568" y="105" as="sourcePoint" />
            <mxPoint x="628" y="105" as="targetPoint" />
          </mxGeometry>
        </mxCell>
        <mxCell id="S-B8eoPbQV6OBo4gRNN--3" value="Dirección" style="ellipse;whiteSpace=wrap;html=1;align=center;" vertex="1" parent="1">
          <mxGeometry x="588" y="50" width="50" height="30" as="geometry" />
        </mxCell>
        <mxCell id="S-B8eoPbQV6OBo4gRNN--5" value="Contiene" style="shape=rhombus;perimeter=rhombusPerimeter;whiteSpace=wrap;html=1;align=center;fillColor=#76608a;fontColor=#ffffff;strokeColor=#432D57;" vertex="1" parent="1">
          <mxGeometry x="425" y="225" width="90" height="40" as="geometry" />
        </mxCell>
        <mxCell id="S-B8eoPbQV6OBo4gRNN--6" value="" style="endArrow=none;html=1;rounded=0;exitX=0;exitY=0.5;exitDx=0;exitDy=0;entryX=0.25;entryY=1;entryDx=0;entryDy=0;" edge="1" source="S-B8eoPbQV6OBo4gRNN--5" parent="1" target="6sxr05ySoq-j22cTBixy-46">
          <mxGeometry relative="1" as="geometry">
            <mxPoint x="402" y="215" as="sourcePoint" />
            <mxPoint x="355" y="245" as="targetPoint" />
          </mxGeometry>
        </mxCell>
        <mxCell id="S-B8eoPbQV6OBo4gRNN--7" value="(1,1)" style="resizable=0;html=1;whiteSpace=wrap;align=right;verticalAlign=bottom;" connectable="0" vertex="1" parent="S-B8eoPbQV6OBo4gRNN--6">
          <mxGeometry x="1" relative="1" as="geometry">
            <mxPoint x="34" as="offset" />
          </mxGeometry>
        </mxCell>
        <mxCell id="S-B8eoPbQV6OBo4gRNN--8" value="" style="endArrow=none;html=1;rounded=0;exitX=1;exitY=0.5;exitDx=0;exitDy=0;entryX=0.75;entryY=0;entryDx=0;entryDy=0;" edge="1" source="S-B8eoPbQV6OBo4gRNN--5" parent="1" target="S-B8eoPbQV6OBo4gRNN--1">
          <mxGeometry relative="1" as="geometry">
            <mxPoint x="402" y="215" as="sourcePoint" />
            <mxPoint x="575" y="245" as="targetPoint" />
          </mxGeometry>
        </mxCell>
        <mxCell id="S-B8eoPbQV6OBo4gRNN--9" value="(1,N)" style="resizable=0;html=1;whiteSpace=wrap;align=right;verticalAlign=bottom;" connectable="0" vertex="1" parent="S-B8eoPbQV6OBo4gRNN--8">
          <mxGeometry x="1" relative="1" as="geometry">
            <mxPoint as="offset" />
          </mxGeometry>
        </mxCell>
      </root>
    </mxGraphModel>
  </diagram>
</mxfile>
